PathFileType	4	(X/Y/Z)	Walk3.trc
DataRate	CameraRate	NumFrames	NumMarkers	Units	OrigDataRate	OrigDataStartFrame	OrigNumFrames
200.000000	200.000000	4	59	mm	200.000000	386	508
Frame#	Times		LFHD		RFHD		LBHD		RBHD		C7		T10		CLAV		STRN		RBack		LASI		RACR1		RUA1		RElbow		RFA1		RWRR		RWRU		RCAR		LACR1		LUA1		LElbow		LElbowM		LFA1		LWRR		LWRU		LCAR		RTH1		RTH3		RTH2		RTB1		RTB4		LTH1		LTH3		LTH2		LTH4		LLFC		LTB1		LTB2		LTB4		LMT1		LToe		LMMAL		RTB2		RTH4		LCAL		LTB3		RElbowM		LMT5		RTB3		LPSI		RPSI		LLMAL		RLFC		RASI		RMT1		RToe		RCAL		RMMAL		RMT5		RLMAL
			X1	Y1	Z1	X2	Y2	Z2	X3	Y3	Z3	X4	Y4	Z4	X5	Y5	Z5	X6	Y6	Z6	X7	Y7	Z7	X8	Y8	Z8	X9	Y9	Z9	X10	Y10	Z10	X11	Y11	Z11	X12	Y12	Z12	X13	Y13	Z13	X14	Y14	Z14	X15	Y15	Z15	X16	Y16	Z16	X17	Y17	Z17	X18	Y18	Z18	X19	Y19	Z19	X20	Y20	Z20	X21	Y21	Z21	X22	Y22	Z22	X23	Y23	Z23	X24	Y24	Z24	X25	Y25	Z25	X26	Y26	Z26	X27	Y27	Z27	X28	Y28	Z28	X29	Y29	Z29	X30	Y30	Z30	X31	Y31	Z31	X32	Y32	Z32	X33	Y33	Z33	X34	Y34	Z34	X35	Y35	Z35	X36	Y36	Z36	X37	Y37	Z37	X38	Y38	Z38	X39	Y39	Z39	X40	Y40	Z40	X41	Y41	Z41	X42	Y42	Z42	X43	Y43	Z43	X44	Y44	Z44	X45	Y45	Z45	X46	Y46	Z46	X47	Y47	Z47	X48	Y48	Z48	X49	Y49	Z49	X50	Y50	Z50	X51	Y51	Z51	X52	Y52	Z52	X53	Y53	Z53	X54	Y54	Z54	X55	Y55	Z55	X56	Y56	Z56	X57	Y57	Z57	X58	Y58	Z58	X59	Y59	Z59

386	1.93	256.45	1434.8	2.6282	252.14	1420.8	98.355	123.62	1366.2	-22.73	119.57	1355	109.74	80.804	1274.2	40.02	-6.6607	1073.8	41.085	222.06	1191.1	27.64	273.96	1084.1	28.147	43.793	1143.5	153.43	184.79	823.09	-147.76	165.42	1208.5	213.23	198.74	1059.1	280.47	194.54	929.48	304.1	258.75	816.33	293.47	271.22	718.01	249.6	250.61	715.82	318.58	297.24	661	293.75	136.85	1230.5	-154.5	151.3	1065.1	-228.59	116.71	946.76	-247.73	84.839	923.36	-182.87	191.89	859.89	-266.37	244.55	762.1	-233.58	204.83	749.77	-281.27	253.13	710.51	-276.52	160.29	642.57	225.65	164	476.62	173.84	216.41	567.21	183.69	190.08	286.83	90.027	169.77	202.83	78.597	150.39	661.28	-198.84	193.3	495.69	-166.37	220.9	599.14	-159.58	171.88	578.66	-186.41	228.79	400.33	-138.81	197.37	301.72	-72.18	108.81	258.3	-115.87	131.6	244.05	-59.878	58.46	60.176	-23.56	88.835	39.966	-57.812	17.663	160.67	2.1757	141.69	201.45	133.22	160.52	558.66	203.89	-52.884	182.98	-21.019	73.589	185.36	-50.718	132.41	900.17	241.87	8.3251	79.469	-94.632	156.76	120.06	66.628	-59.064	843.32	-16.951	-44.635	847.03	87.081	-19.645	166.69	-71.432	150.24	390.58	149.07	221.19	829.17	179.98	208.5	30.186	22.33	268.33	30.808	49.543	44.764	34.829	63.827	111	70.403	21.331	192.79	22.235	118.76	106.82	60.323	104.75
387	1.935	261.46	1435.4	3.1711	257.12	1421.3	98.881	128.76	1366.6	-22.339	124.67	1355.3	110.11	86.072	1274.6	40.284	-1.3045	1074.2	41.368	227.33	1191.6	27.829	279.29	1084.6	27.845	49.056	1143.9	153.67	190.18	824.01	-147.82	170.63	1208.9	213.45	204.64	1059.5	280.49	201.16	930.03	304.26	265.75	817.12	293.18	278.43	718.89	249.32	258.18	716.61	318.37	305.06	662.14	293.41	141.85	1231	-154.29	155.25	1065.8	-228.74	120.74	947.5	-247.53	88.559	924.34	-182.8	194.95	859.87	-266.53	246.27	761.21	-233.98	206.53	749.66	-281.85	254.23	709.57	-277.1	164.51	642.52	225.66	166.99	476.58	173.77	219.96	566.9	183.36	191.23	286.68	90.232	170.52	202.77	78.749	156.36	661.98	-198.61	200.7	496.87	-165.74	227.49	600.57	-159.32	178.54	579.58	-185.97	237.09	401.88	-138.02	207.56	302.84	-71.35	119.88	257.56	-114.97	143.02	243.8	-58.997	74.893	59.117	-22.675	106.01	39.707	-56.795	30.965	157.9	3.0951	142.37	201.52	133.33	164.15	558.6	203.9	-40.268	178.2	-20.072	86.316	183.85	-49.796	138.64	900.45	242.47	24.169	76.678	-93.709	157.16	120.08	66.735	-53.836	844.08	-16.555	-39.288	847.6	87.416	-6.4355	163	-70.553	151.88	390.66	149.18	226.11	829.38	180.19	208.51	30.222	22.364	268.44	30.702	49.64	44.812	35.199	63.849	111.25	70.636	21.383	192.77	22.231	118.77	106.93	60.463	104.76
388	1.94	266.46	1436	3.6937	262.09	1421.8	99.387	133.91	1367	-21.978	129.77	1355.5	110.46	91.34	1275	40.524	4.0501	1074.6	41.626	232.61	1192.1	28.009	284.62	1085.2	27.496	54.309	1144.2	153.88	195.6	824.93	-147.86	175.81	1209.2	213.64	210.44	1060	280.52	207.75	930.56	304.39	272.73	817.91	292.88	285.66	719.78	249.03	265.74	717.41	318.14	312.91	663.31	293.09	146.9	1231.5	-154.09	159.23	1066.5	-228.91	124.77	948.24	-247.38	92.296	925.29	-182.77	198.02	859.87	-266.75	247.97	760.36	-234.47	208.22	749.58	-282.51	255.3	708.67	-277.77	168.73	642.45	225.63	170.06	476.52	173.7	223.55	566.57	183.04	192.37	286.53	90.469	171.27	202.71	78.914	162.34	662.64	-198.38	208.03	498	-165.1	234.05	601.93	-159.04	185.17	580.46	-185.54	245.27	403.37	-137.18	217.7	303.91	-70.5	131.02	256.68	-114.08	154.5	243.43	-58.127	91.585	57.963	-21.847	123.46	39.418	-55.835	44.482	154.92	3.9495	143.04	201.59	133.44	167.81	558.52	203.87	-27.405	173.1	-19.196	99.204	182.18	-48.905	144.87	900.71	243.01	40.307	73.73	-92.858	157.56	120.11	66.849	-48.631	844.85	-16.154	-33.941	848.18	87.757	7.0022	159.03	-69.733	153.5	390.75	149.28	231.06	829.56	180.34	208.53	30.258	22.404	268.56	30.599	49.745	44.872	35.599	63.858	111.5	70.88	21.43	192.74	22.227	118.79	107.04	60.612	104.76
389	1.945	271.45	1436.6	4.1949	267.03	1422.3	99.872	139.06	1367.3	-21.647	134.85	1355.7	110.77	96.607	1275.3	40.74	9.4022	1074.9	41.859	237.9	1192.5	28.179	289.93	1085.7	27.105	59.555	1144.5	154.08	201.03	825.84	-147.88	180.98	1209.5	213.83	216.15	1060.4	280.55	214.29	931.07	304.51	279.69	818.7	292.58	292.9	720.67	248.74	273.3	718.2	317.91	320.77	664.5	292.78	152	1232	-153.88	163.24	1067.1	-229.1	128.79	948.96	-247.27	96.064	926.22	-182.76	201.08	859.88	-267.03	249.67	759.53	-235.05	209.91	749.54	-283.26	256.36	707.81	-278.54	172.95	642.36	225.57	173.18	476.46	173.63	227.17	566.23	182.72	193.51	286.38	90.732	172.02	202.67	79.09	168.32	663.26	-198.17	215.3	499.08	-164.44	240.59	603.22	-158.76	191.78	581.29	-185.11	253.31	404.8	-136.3	227.78	304.92	-69.63	142.21	255.67	-113.21	166.03	242.97	-57.271	108.52	56.737	-21.106	141.14	39.122	-54.969	58.217	151.73	4.731	143.69	201.68	133.55	171.47	558.44	203.79	-14.283	167.71	-18.391	112.25	180.38	-48.05	151.1	900.94	243.51	56.719	70.667	-92.1	157.96	120.15	66.967	-43.444	845.6	-15.76	-28.601	848.77	88.095	20.669	154.83	-68.976	155.11	390.84	149.39	236.06	829.72	180.44	208.56	30.293	22.448	268.66	30.5	49.856	44.944	36.028	63.851	111.76	71.134	21.471	192.72	22.223	118.8	107.15	60.769	104.75
